<svg width="18" height="17" viewBox="0 0 18 17" fill="none" xmlns="http://www.w3.org/2000/svg">
<mask id="path-1-inside-1" fill="white">
<path d="M5 16.0436H12.4545C15.216 16.0436 17.4545 13.805 17.4545 11.0436V6.33143C17.4545 4.23891 15.7582 2.54258 13.6657 2.54258L12.3373 1.2862C11.9659 0.93497 11.4742 0.739258 10.963 0.739258H6.5061C5.99495 0.739258 5.50319 0.934971 5.13183 1.2862L3.80343 2.54258C1.70285 2.54258 0 4.24543 0 6.34601V11.0436C0 13.805 2.23857 16.0436 5 16.0436Z"/>
</mask>
<path d="M3.80343 2.54258V4.04258H4.40041L4.83414 3.63237L3.80343 2.54258ZM5.13183 1.2862L6.16253 2.37599L6.16253 2.37599L5.13183 1.2862ZM12.3373 1.2862L13.368 0.196413V0.196413L12.3373 1.2862ZM13.6657 2.54258L12.635 3.63237L13.0687 4.04258H13.6657V2.54258ZM12.4545 14.5436H5V17.5436H12.4545V14.5436ZM4.83414 3.63237L6.16253 2.37599L4.10112 0.196413L2.77273 1.45279L4.83414 3.63237ZM6.5061 2.23926H10.963V-0.760742H6.5061V2.23926ZM15.9545 6.33143V11.0436H18.9545V6.33143H15.9545ZM1.5 11.0436V6.34601H-1.5V11.0436H1.5ZM11.3066 2.37599L12.635 3.63237L14.6964 1.45279L13.368 0.196413L11.3066 2.37599ZM1.5 6.34601C1.5 5.07386 2.53128 4.04258 3.80343 4.04258V1.04258C0.874429 1.04258 -1.5 3.417 -1.5 6.34601H1.5ZM10.963 2.23926C11.0908 2.23926 11.2137 2.28819 11.3066 2.37599L13.368 0.196413C12.7181 -0.418245 11.8575 -0.760742 10.963 -0.760742V2.23926ZM6.16253 2.37599C6.25537 2.28819 6.37831 2.23926 6.5061 2.23926V-0.760742C5.61158 -0.760742 4.75101 -0.418244 4.10112 0.196414L6.16253 2.37599ZM5 14.5436C3.067 14.5436 1.5 12.9766 1.5 11.0436H-1.5C-1.5 14.6335 1.41015 17.5436 5 17.5436V14.5436ZM18.9545 6.33143C18.9545 3.41048 16.5866 1.04258 13.6657 1.04258V4.04258C14.9298 4.04258 15.9545 5.06733 15.9545 6.33143H18.9545ZM12.4545 17.5436C16.0444 17.5436 18.9545 14.6335 18.9545 11.0436H15.9545C15.9545 12.9766 14.3875 14.5436 12.4545 14.5436V17.5436Z" fill="white" mask="url(#path-1-inside-1)"/>
<path d="M12.3406 8.3912C12.3406 10.2511 10.7544 11.8151 8.72692 11.8151C6.69939 11.8151 5.11328 10.2511 5.11328 8.3912C5.11328 6.53129 6.69939 4.96729 8.72692 4.96729C10.7544 4.96729 12.3406 6.53129 12.3406 8.3912Z" stroke="white" stroke-width="1.5"/>
</svg>
