<svg version="1.0" xmlns="http://www.w3.org/2000/svg" width="1706.667" height="1333.333" viewBox="0 0 1280 1000"><path d="M597 1.1C437.8 9 288.7 59.8 178 143.9c-50.1 38-90.7 81.7-121.8 131-8.1 12.9-25 46-30.1 59.1C9.7 375.6 1.7 413.7.3 456.5c-1.6 53.4 14.2 106.9 48.2 163.3C99.5 704.3 191.4 791.1 292 850c21.5 12.5 31.5 19.6 38.9 27.6 6.6 7 9.3 12 9.9 18.7.4 3.9-.1 5.9-2.8 11.3-2.6 5.3-6.8 10.3-21.4 25.4-23.2 24-28.4 32.4-27.3 43.9.9 9 7 13.8 18.5 14.8 13.5 1.1 32.6-3.4 98.6-23.2 77-23 113.1-31.9 151.9-37.5 13.4-1.9 16.3-2 31.7-1.1 35.9 2.3 91.9 1.2 132-2.4 197.8-18.2 373.6-103.7 473.6-230.5 29.9-37.9 52.8-80 66.9-122.7 11.8-36 17-68.7 17-108.3 0-25.9-.8-36.3-4.6-58.5-18.1-106.2-86-204-193.9-279.2C952.9 39 775.1-7.7 597 1.1z" fill="#999"/></svg>