<?xml version="1.0" standalone="no"?>
<!DOCTYPE svg PUBLIC "-//W3C//DTD SVG 20010904//EN"
 "http://www.w3.org/TR/2001/REC-SVG-20010904/DTD/svg10.dtd">
<svg version="1.0" xmlns="http://www.w3.org/2000/svg"
 width="1280.000000pt" height="1000.000000pt" viewBox="0 0 1280.000000 1000.000000"
 preserveAspectRatio="xMidYMid meet">
<metadata>
Created by potrace 1.15, written by Peter Selinger 2001-2017
</metadata>
<g transform="translate(0.000000,1000.000000) scale(0.100000,-0.100000)"
fill="#999999" stroke="none">
<path d="M5970 9989 c-1592 -79 -3083 -587 -4190 -1428 -501 -380 -907 -817
-1218 -1310 -81 -129 -250 -460 -301 -591 -164 -416 -244 -797 -258 -1225 -16
-534 142 -1069 482 -1633 510 -845 1429 -1713 2435 -2302 215 -125 315 -196
389 -276 66 -70 93 -120 99 -187 4 -39 -1 -59 -28 -113 -26 -53 -68 -103 -214
-254 -232 -240 -284 -324 -273 -439 9 -90 70 -138 185 -148 135 -11 326 34
986 232 770 230 1131 319 1519 375 134 19 163 20 317 11 359 -23 919 -12 1320
24 1978 182 3736 1037 4736 2305 299 379 528 800 669 1227 118 360 170 687
170 1083 0 259 -8 363 -46 585 -181 1062 -860 2040 -1939 2792 -1281 893
-3059 1360 -4840 1272z"/>
</g>
</svg>
