<svg viewBox="6 0 28 28" fill="none" xmlns="http://www.w3.org/2000/svg"><g filter="url(#filter0_d)"><path fill-rule="evenodd" clip-rule="evenodd" d="M20 28c7.732 0 14-6.268 14-14S27.732 0 20 0 6 6.268 6 14s6.268 14 14 14z" fill="#FF3A6A"/><path d="M32.987 14c0 7.172-5.815 12.987-12.987 12.987S7.013 21.172 7.013 14 12.828 1.013 20 1.013 32.987 6.828 32.987 14z" stroke="currentColor" stroke-width="2.026"/></g><path d="M21.064 9.734l2.003 2.122-2.739 2.9-3.5-3.706-4.952 5.253 1.234 1.306 3.718-3.937 3.5 3.706 3.982-4.207 2.004 2.122V9.734h-5.25z" fill="#fff"/><defs><filter id="filter0_d" x=".596" y="0" width="38.807" height="38.807" filterUnits="userSpaceOnUse" color-interpolation-filters="sRGB"><feBlend in="SourceGraphic" in2="effect1_dropShadow" result="shape"/></filter></defs></svg>