<svg xmlns="http://www.w3.org/2000/svg" width="64pt" height="64pt" viewBox="0 0 64 64"><path d="M32 3.027c-7.426 0-14.852 2.825-20.5 8.473-11.3 11.3-11.3 29.7 0 41A28.977 28.977 0 0032 61a28.977 28.977 0 0020.5-8.5c11.3-11.3 11.3-29.7 0-41C46.852 5.852 39.426 3.027 32 3.027zM32 6c6.648 0 13.3 2.55 18.402 7.598C60.5 23.75 60.5 40.25 50.402 50.402c-10.152 10.149-26.652 10.149-36.75 0C3.5 40.25 3.5 23.75 13.602 13.598 18.699 8.55 25.352 6 32 6zm0 15c-.852 0-1.5.648-1.5 1.5v8h-8c-.852 0-1.5.648-1.5 1.5s.648 1.5 1.5 1.5h8v8c0 .852.648 1.5 1.5 1.5s1.5-.648 1.5-1.5v-8h8c.852 0 1.5-.648 1.5-1.5s-.648-1.5-1.5-1.5h-8v-8c0-.852-.648-1.5-1.5-1.5zm0 0" fill="#fff"/></svg>