<svg xmlns="http://www.w3.org/2000/svg" width="16" height="18" viewBox="0 0 16 18"><path d="M10.87 11.55L8 12.87l-2.87-1.32C3.6 11.74.4 12.28 0 16h16c-.4-3.72-3.6-4.26-5.13-4.45zM4.19 7.12c.24.61.63.9.77.83a.68.68 0 0 0 .26-.18C5.32 9.24 7 11.14 8 11.14c1 0 2.75-1.58 3-3.43 0 0 0 .09.27.12s.36-.33.61-.88c.46-1.13.4-1.9.09-2a1 1 0 0 0-.41.15c0-2 .75-2.93-.56-4.46C9.65.85 9.08 0 7.45 0 5.27 0 5.26 1.1 5.27 1.34c-.46-.18-.87.29-1 .57.56 1.37.18 1.67.43 3.41 0 0-.42-.32-.57-.32-.15 0-.35.26-.29.77.045.466.164.921.35 1.35z"></path></svg>