<svg width="14" height="12" fill="none" xmlns="http://www.w3.org/2000/svg">
    <path fill-rule="evenodd" clip-rule="evenodd" d="M9.625 5.51v.97125l2.625 1.8451v-4.6527L9.625 5.51zM7.875 2.5H1.75v7h6.125v-7zm1.75 6.125v1.3125c0 .2521-.07109.4877-.19432.6876-.23107.375-.64544.6249-1.11818.6249h-7C.587626 11.25 0 10.6624 0 9.9375v-7.875C0 1.33763.587626.75 1.3125.75h7c.47274 0 .88711.249937 1.11818.62488.12323.19997.19432.43549.19432.68762V3.375l2.9982-2.09875C13.2031.870295 14 1.28518 14 1.99307v8.01383c0 .7079-.7968 1.1228-1.3768.7169L9.625 8.625z" fill="#fff"/>
</svg>
